#N canvas 87 101 450 300 10;
#X obj 97 128 random 1000;
#X obj 97 149 / 1000;
#X floatatom 148 78 5 0 0 0 - - -;
#X obj 97 105 metro 100;
#X obj 148 48 inlet;
#X obj 97 49 inlet;
#X obj 97 177 outlet;
#X connect 0 0 1 0;
#X connect 1 0 6 0;
#X connect 2 0 3 1;
#X connect 3 0 0 0;
#X connect 4 0 2 0;
#X connect 5 0 3 0;
