#N canvas 345 68 759 591 10;
#X obj 47 259 phasor~ 110;
#X obj 47 282 -~ 0.5;
#X obj 54 61 * 800;
#X obj 167 106 phasor~ 1;
#X obj 150 56 * 20;
#X floatatom 24 86 5 0 0 0 - - -;
#X floatatom 123 77 5 0 0 0 - - -;
#X obj 152 178 *~;
#X obj 47 234 +~;
#X obj 233 152 * 400;
#X floatatom 183 179 5 0 0 0 - - -;
#X obj 138 151 -~ 0.5;
#X obj 139 130 -~;
#X obj 119 110 sig~ 1;
#X text 114 53 Rate;
#X text 208 152 Int;
#X text 23 40 Pitch;
#X obj 47 462 *~;
#X floatatom 574 395 1 0 0 0 - - -;
#X obj 573 374 tgl 15 0 empty empty empty 17 7 0 10 -262144 -1 -1 0
0.00787402;
#X text 594 374 MUTE;
#X obj 273 355 lores~;
#X text 241 72 Cutoff;
#X obj 287 72 * 800;
#X text 383 50 Peak;
#X floatatom 301 96 5 0 0 0 - - -;
#X floatatom 389 95 5 0 0 0 - - -;
#X obj 258 308 +~;
#X obj 444 242 == 0;
#X obj 475 243 == 1;
#X obj 58 210 *~;
#X obj 273 288 *~;
#X obj 468 219 tgl 15 0 empty empty empty 17 7 0 10 -262144 -1 -1 0
0.944882;
#X text 488 218 Mod Dst;
#X obj 388 70 clip 0.01 0.99;
#X obj 466 199 inlet;
#X obj 573 354 inlet;
#X obj 46 488 outlet~;
#X obj 46 431 *~ 0.5;
#X obj 175 5 inlet;
#X obj 175 26 unpack f f f f f;
#X connect 0 0 1 0;
#X connect 1 0 21 0;
#X connect 2 0 5 0;
#X connect 2 0 8 0;
#X connect 3 0 12 1;
#X connect 4 0 3 0;
#X connect 4 0 6 0;
#X connect 7 0 30 0;
#X connect 7 0 31 0;
#X connect 8 0 0 0;
#X connect 9 0 7 1;
#X connect 9 0 10 0;
#X connect 11 0 7 0;
#X connect 12 0 11 0;
#X connect 13 0 12 0;
#X connect 17 0 37 0;
#X connect 18 0 17 1;
#X connect 19 0 18 0;
#X connect 21 0 38 0;
#X connect 23 0 25 0;
#X connect 23 0 27 0;
#X connect 27 0 21 1;
#X connect 28 0 30 1;
#X connect 29 0 31 1;
#X connect 30 0 8 1;
#X connect 31 0 27 1;
#X connect 32 0 28 0;
#X connect 32 0 29 0;
#X connect 34 0 21 2;
#X connect 34 0 26 0;
#X connect 35 0 32 0;
#X connect 36 0 19 0;
#X connect 38 0 17 0;
#X connect 39 0 40 0;
#X connect 40 0 2 0;
#X connect 40 1 4 0;
#X connect 40 2 9 0;
#X connect 40 3 23 0;
#X connect 40 4 34 0;
#X coords 0 0 1 1 85 60 0;
