#N canvas 519 139 434 400 10;
#X declare -lib mrpeach;
#X obj 100 322 dac~;
#X obj 211 29 import mrpeach;
#X obj 47 30 udpreceive 12345;
#X obj 47 59 unpackOSC;
#N canvas 679 151 507 393 synth0 0;
#X obj 199 327 synth;
#X floatatom 50 231 5 0 0 0 - - -;
#X floatatom 87 231 5 0 0 0 - - -;
#X floatatom 124 233 5 0 0 0 - - -;
#X floatatom 162 231 5 0 0 0 - - -;
#X floatatom 197 232 5 0 0 0 - - -;
#X obj 43 120 inlet;
#X obj 199 353 outlet~;
#X obj 103 299 pack f f f f f;
#X obj 158 17 inlet;
#X obj 294 20 inlet;
#X text 336 19 Momentary;
#X text 198 18 Toggle;
#X text 84 121 Continuous;
#X floatatom 248 191 1 0 0 0 - - -;
#X floatatom 275 193 1 0 0 0 - - -;
#X obj 21 193 f;
#X obj 58 194 f;
#X obj 96 193 f;
#X obj 130 193 f;
#X obj 164 193 f;
#X obj 209 265 t b;
#X obj 463 157 inlet;
#X text 462 141 Mute;
#X msg 463 177 0;
#N canvas 116 148 450 300 toggles 0;
#X obj 59 20 inlet;
#X obj 60 215 outlet;
#X obj 152 215 outlet;
#X msg 93 161 0;
#X msg 57 159 1;
#X msg 186 154 0;
#X msg 154 153 1;
#X obj 57 138 sel on off;
#X obj 154 132 sel on off;
#X obj 57 115 symbol;
#X obj 154 108 symbol;
#X obj 108 76 route 0 1;
#X connect 0 0 11 0;
#X connect 3 0 1 0;
#X connect 4 0 1 0;
#X connect 5 0 2 0;
#X connect 6 0 2 0;
#X connect 7 0 4 0;
#X connect 7 1 3 0;
#X connect 8 0 6 0;
#X connect 8 1 5 0;
#X connect 9 0 7 0;
#X connect 10 0 8 0;
#X connect 11 0 9 0;
#X connect 11 1 10 0;
#X restore 158 50 pd toggles;
#N canvas 116 148 450 300 toggles 0;
#X obj 59 20 inlet;
#X obj 60 215 outlet;
#X obj 152 215 outlet;
#X msg 93 161 0;
#X msg 57 159 1;
#X msg 186 154 0;
#X msg 154 153 1;
#X obj 57 138 sel on off;
#X obj 154 132 sel on off;
#X obj 57 115 symbol;
#X obj 154 108 symbol;
#X obj 108 76 route 0 1;
#X connect 0 0 11 0;
#X connect 3 0 1 0;
#X connect 4 0 1 0;
#X connect 5 0 2 0;
#X connect 6 0 2 0;
#X connect 7 0 4 0;
#X connect 7 1 3 0;
#X connect 8 0 6 0;
#X connect 8 1 5 0;
#X connect 9 0 7 0;
#X connect 10 0 8 0;
#X connect 11 0 9 0;
#X connect 11 1 10 0;
#X restore 307 50 pd toggles;
#X obj 281 111 metrand;
#X floatatom 320 87 5 0 0 0 - - -;
#X obj 364 112 metrand;
#X floatatom 403 88 5 0 0 0 - - -;
#X obj 43 149 route 0 1 2 6 7;
#X connect 0 0 7 0;
#X connect 1 0 8 0;
#X connect 2 0 8 1;
#X connect 2 0 21 0;
#X connect 3 0 8 2;
#X connect 3 0 21 0;
#X connect 4 0 8 3;
#X connect 4 0 21 0;
#X connect 5 0 8 4;
#X connect 5 0 21 0;
#X connect 6 0 31 0;
#X connect 8 0 0 0;
#X connect 9 0 25 0;
#X connect 10 0 26 0;
#X connect 14 0 0 1;
#X connect 15 0 0 2;
#X connect 16 0 1 0;
#X connect 17 0 2 0;
#X connect 18 0 3 0;
#X connect 19 0 4 0;
#X connect 20 0 5 0;
#X connect 21 0 8 0;
#X connect 22 0 24 0;
#X connect 24 0 15 0;
#X connect 25 0 15 0;
#X connect 25 1 14 0;
#X connect 26 0 27 0;
#X connect 26 1 29 0;
#X connect 27 0 1 0;
#X connect 28 0 27 1;
#X connect 29 0 2 0;
#X connect 30 0 29 1;
#X connect 31 0 16 0;
#X connect 31 1 17 0;
#X connect 31 2 18 0;
#X connect 31 3 19 0;
#X connect 31 4 20 0;
#X restore 69 209 pd synth0;
#X obj 48 87 routeOSC /paper;
#X obj 48 117 routeOSC /continuous /toggle /momentary /stop;
#X obj 248 147 t b;
#X obj 109 283 +~;
#X obj 144 252 *~ 0.5;
#X obj 69 256 *~ 0.5;
#N canvas 673 164 507 393 synth1 1;
#X obj 199 327 synth;
#X floatatom 50 231 5 0 0 0 - - -;
#X floatatom 87 231 5 0 0 0 - - -;
#X floatatom 124 233 5 0 0 0 - - -;
#X floatatom 162 231 5 0 0 0 - - -;
#X floatatom 197 232 5 0 0 0 - - -;
#X obj 43 120 inlet;
#X obj 199 353 outlet~;
#X obj 103 299 pack f f f f f;
#X obj 158 17 inlet;
#X obj 294 20 inlet;
#X text 336 19 Momentary;
#X text 198 18 Toggle;
#X text 84 121 Continuous;
#X floatatom 248 191 1 0 0 0 - - -;
#X floatatom 275 193 1 0 0 0 - - -;
#X obj 21 193 f;
#X obj 58 194 f;
#X obj 96 193 f;
#X obj 130 193 f;
#X obj 164 193 f;
#X obj 209 265 t b;
#X obj 463 157 inlet;
#X text 462 141 Mute;
#X msg 463 177 0;
#N canvas 116 148 450 300 toggles 0;
#X obj 59 20 inlet;
#X obj 60 215 outlet;
#X obj 152 215 outlet;
#X msg 93 161 0;
#X msg 57 159 1;
#X msg 186 154 0;
#X msg 154 153 1;
#X obj 57 138 sel on off;
#X obj 154 132 sel on off;
#X obj 57 115 symbol;
#X obj 154 108 symbol;
#X obj 108 76 route 2 3;
#X connect 0 0 11 0;
#X connect 3 0 1 0;
#X connect 4 0 1 0;
#X connect 5 0 2 0;
#X connect 6 0 2 0;
#X connect 7 0 4 0;
#X connect 7 1 3 0;
#X connect 8 0 6 0;
#X connect 8 1 5 0;
#X connect 9 0 7 0;
#X connect 10 0 8 0;
#X connect 11 0 9 0;
#X connect 11 1 10 0;
#X restore 158 50 pd toggles;
#N canvas 116 148 450 300 toggles 0;
#X obj 59 20 inlet;
#X obj 60 215 outlet;
#X obj 152 215 outlet;
#X msg 93 161 0;
#X msg 57 159 1;
#X msg 186 154 0;
#X msg 154 153 1;
#X obj 57 138 sel on off;
#X obj 154 132 sel on off;
#X obj 57 115 symbol;
#X obj 154 108 symbol;
#X obj 108 76 route 2 3;
#X connect 0 0 11 0;
#X connect 3 0 1 0;
#X connect 4 0 1 0;
#X connect 5 0 2 0;
#X connect 6 0 2 0;
#X connect 7 0 4 0;
#X connect 7 1 3 0;
#X connect 8 0 6 0;
#X connect 8 1 5 0;
#X connect 9 0 7 0;
#X connect 10 0 8 0;
#X connect 11 0 9 0;
#X connect 11 1 10 0;
#X restore 307 50 pd toggles;
#X obj 281 111 metrand;
#X floatatom 320 87 5 0 0 0 - - -;
#X obj 364 112 metrand;
#X floatatom 403 88 5 0 0 0 - - -;
#X obj 43 149 route 3 4 5 8 9;
#X connect 0 0 7 0;
#X connect 1 0 8 0;
#X connect 2 0 8 1;
#X connect 2 0 21 0;
#X connect 3 0 8 2;
#X connect 3 0 21 0;
#X connect 4 0 8 3;
#X connect 4 0 21 0;
#X connect 5 0 8 4;
#X connect 5 0 21 0;
#X connect 6 0 31 0;
#X connect 8 0 0 0;
#X connect 9 0 25 0;
#X connect 10 0 26 0;
#X connect 14 0 0 1;
#X connect 15 0 0 2;
#X connect 16 0 1 0;
#X connect 17 0 2 0;
#X connect 18 0 3 0;
#X connect 19 0 4 0;
#X connect 20 0 5 0;
#X connect 21 0 8 0;
#X connect 22 0 24 0;
#X connect 24 0 15 0;
#X connect 25 0 15 0;
#X connect 25 1 14 0;
#X connect 26 0 27 0;
#X connect 26 1 29 0;
#X connect 27 0 1 0;
#X connect 28 0 27 1;
#X connect 29 0 2 0;
#X connect 30 0 29 1;
#X connect 31 0 16 0;
#X connect 31 1 17 0;
#X connect 31 2 18 0;
#X connect 31 3 19 0;
#X connect 31 4 20 0;
#X restore 144 210 pd synth1;
#X connect 2 0 3 0;
#X connect 3 0 5 0;
#X connect 4 0 10 0;
#X connect 5 0 6 0;
#X connect 6 0 4 0;
#X connect 6 0 11 0;
#X connect 6 1 4 1;
#X connect 6 1 11 1;
#X connect 6 2 4 2;
#X connect 6 2 11 2;
#X connect 6 3 7 0;
#X connect 7 0 4 3;
#X connect 7 0 11 3;
#X connect 8 0 0 0;
#X connect 8 0 0 1;
#X connect 9 0 8 1;
#X connect 10 0 8 0;
#X connect 11 0 9 0;
